<svg width="820" height="142" viewBox="0 0 820 142" fill="none" xmlns="http://www.w3.org/2000/svg">
<path d="M70.4401 45.3999L76.9001 62.8699C77.5201 64.5499 78.8401 65.8699 80.5201 66.4899L97.9901 72.9499L80.5201 79.4099C78.8401 80.0299 77.5201 81.3499 76.9001 83.0299L70.4401 100.5L63.9801 83.0299C63.3601 81.3499 62.0401 80.0299 60.3601 79.4099L42.8901 72.9499L60.3601 66.4899C62.0401 65.8699 63.3601 64.5499 63.9801 62.8699L70.4401 45.3999Z" fill="#1C3664"/>
<path d="M86.3302 38.1499L87.6302 41.6599C88.2502 43.3399 89.5702 44.6599 91.2502 45.2799L94.7601 46.5799L91.2502 47.8799C89.5702 48.4999 88.2502 49.8199 87.6302 51.4999L86.3302 55.0099L85.0302 51.4999C84.4102 49.8199 83.0902 48.4999 81.4102 47.8799L77.9001 46.5799L81.4102 45.2799C83.0902 44.6599 84.4102 43.3399 85.0302 41.6599L86.3302 38.1499Z" fill="#F0B51D"/>
<path d="M284.81 43.72L299.69 80.56L314.57 43.72H329.33L299.69 105.98L270.17 43.72H284.81Z" fill="#333333"/>
<path d="M352.22 15.1901C353.91 13.6201 355.88 12.8301 358.11 12.8301C360.51 12.8301 362.51 13.6201 364.12 15.1901C365.73 16.7601 366.54 18.7001 366.54 21.0201C366.54 23.3401 365.73 25.1701 364.12 26.7901C362.51 28.4001 360.5 29.2101 358.11 29.2101C355.88 29.2101 353.91 28.4001 352.22 26.7901C350.53 25.1801 349.68 23.2501 349.68 21.0201C349.68 18.7901 350.53 16.7601 352.22 15.1901ZM364.68 43.7201V100.77H351.53V43.7201H364.68Z" fill="#333333"/>
<path d="M395.07 56.19C397.63 51.77 401.04 48.38 405.3 46.0201C409.56 43.6601 414.13 42.48 419 42.48C423.87 42.48 427.99 43.68 431.59 46.08C435.19 48.48 438.04 51.89 440.15 56.31C442.26 60.73 443.31 66.05 443.31 72.25C443.31 78.45 442.26 83.66 440.15 88.13C438.04 92.6 435.19 96.03 431.59 98.42C427.99 100.82 423.79 102.02 419 102.02C414.21 102.02 409.55 100.84 405.3 98.48C401.04 96.12 397.63 92.71 395.07 88.25C392.51 83.78 391.22 78.45 391.22 72.25C391.22 66.05 392.5 60.61 395.07 56.19ZM407.47 82.05C409.04 84.78 411.13 86.85 413.73 88.25C416.33 89.66 419.16 90.36 422.23 90.36C424.79 90.36 427.33 89.66 429.86 88.25C432.38 86.85 434.45 84.8 436.06 82.11C437.67 79.42 438.48 76.14 438.48 72.25C438.48 68.36 437.67 65.08 436.06 62.39C434.45 59.7 432.38 57.66 429.86 56.25C427.34 54.85 424.79 54.14 422.23 54.14C419.17 54.14 416.34 54.84 413.73 56.25C411.13 57.66 409.04 59.72 407.47 62.45C405.9 65.18 405.11 68.45 405.11 72.25C405.11 76.05 405.89 79.32 407.47 82.05ZM452 4.03003V100.77H438.48V4.03003H452Z" fill="#333333"/>
<path d="M594.25 56.5C592.51 54.35 589.83 53.28 586.19 53.28C583.71 53.28 581.52 53.8 579.62 54.83C577.72 55.87 576.23 57.35 575.16 59.3C574.08 61.24 573.55 63.5 573.55 66.06V100.79H560.16V43.74H573.55V52.55C575.37 49.16 577.71 46.64 580.56 44.98C583.41 43.32 586.82 42.5 590.79 42.5C597.24 42.5 602.16 44.47 605.55 48.39C608.94 52.32 610.64 57.71 610.64 64.58V100.8H596.87V66.07C596.87 61.85 596 58.67 594.27 56.52L594.25 56.5Z" fill="#333333"/>
<path d="M664.58 43.7201V55.5001H632.21V43.7201H664.58ZM655.03 23.8801V100.78H641.76V23.8801H655.03Z" fill="#333333"/>
<path d="M688.2 15.1901C689.89 13.6201 691.86 12.8301 694.09 12.8301C696.49 12.8301 698.49 13.6201 700.1 15.1901C701.71 16.7601 702.52 18.7001 702.52 21.0201C702.52 23.3401 701.71 25.1701 700.1 26.7901C698.49 28.4001 696.48 29.2101 694.09 29.2101C691.86 29.2101 689.89 28.4001 688.2 26.7901C686.51 25.1801 685.66 23.2501 685.66 21.0201C685.66 18.7901 686.51 16.7601 688.2 15.1901ZM700.67 43.7201V100.77H687.52V43.7201H700.67Z" fill="#333333"/>
<path d="M741.35 87.9401C742.26 89.3001 743.52 90.3201 745.13 90.9801C746.74 91.6401 748.58 91.9701 750.65 91.9701C753.3 91.9701 755.71 91.4301 757.9 90.3601C760.09 89.2901 761.87 87.6901 763.23 85.5901C764.59 83.4801 765.28 81.0201 765.28 78.2101L767.26 85.6501C767.26 89.2901 766.21 92.3301 764.1 94.7701C761.99 97.2101 759.34 99.0301 756.16 100.23C752.98 101.43 749.73 102.03 746.42 102.03C742.86 102.03 739.56 101.33 736.5 99.9201C733.44 98.5201 731 96.4501 729.18 93.7201C727.36 90.9901 726.45 87.6901 726.45 83.8001C726.45 78.2601 728.39 73.8601 732.28 70.5901C736.17 67.3201 741.66 65.6901 748.78 65.6901C752.58 65.6901 755.87 66.1101 758.64 66.9301C761.41 67.7601 763.7 68.7301 765.52 69.8401C767.34 70.9601 768.62 71.9701 769.37 72.8801V79.7001C766.81 77.8801 764.08 76.5601 761.18 75.7301C758.28 74.9001 755.23 74.4901 752 74.4901C749.19 74.4901 746.91 74.8401 745.18 75.5401C743.44 76.2401 742.14 77.2101 741.27 78.4501C740.4 79.6901 739.97 81.2201 739.97 83.0401C739.97 84.8601 740.42 86.5801 741.33 87.9401H741.35ZM730.31 49.1801C732.87 47.6101 736.2 46.0801 740.29 44.5901C744.38 43.1001 749.07 42.3601 754.37 42.3601C759.08 42.3601 763.24 43.0601 766.84 44.4701C770.44 45.8801 773.27 47.8801 775.34 50.4901C777.41 53.0901 778.44 56.3001 778.44 60.1001V100.78H765.29V62.7001C765.29 60.8801 764.98 59.3901 764.36 58.2301C763.74 57.0701 762.89 56.1201 761.82 55.3801C760.74 54.6301 759.46 54.1001 757.97 53.7701C756.48 53.4401 754.87 53.2701 753.13 53.2701C750.48 53.2701 747.98 53.5801 745.63 54.2001C743.27 54.8201 741.25 55.5601 739.55 56.4301C737.86 57.3001 736.59 58.0201 735.77 58.6001L730.31 49.1701V49.1801Z" fill="#333333"/>
<path d="M819.86 4.03003V100.77H806.47V4.03003H819.86Z" fill="#333333"/>
<path d="M518.63 88.0799C515.38 90.4699 511.36 91.8999 507.01 91.8999C496.16 91.8999 487.36 83.0999 487.36 72.2499C487.36 61.3999 496.16 52.5999 507.01 52.5999C516.01 52.5999 523.6 58.6599 525.92 66.9199H506.95V77.5599H536.88C537.18 75.8399 537.35 74.0699 537.35 72.2599C537.35 55.4999 523.77 41.9199 507.01 41.9199C490.25 41.9199 476.67 55.4999 476.67 72.2599C476.67 89.0199 490.25 102.6 507.01 102.6C517.96 102.6 527.56 96.7899 532.89 88.0899H518.62L518.63 88.0799Z" fill="#333333"/>
<path d="M238.44 88.0799C235.19 90.4699 231.17 91.8999 226.82 91.8999C215.97 91.8999 207.17 83.0999 207.17 72.2499C207.17 61.3999 215.97 52.5999 226.82 52.5999C235.82 52.5999 243.41 58.6599 245.73 66.9199H226.76V77.5599H256.69C256.99 75.8399 257.16 74.0699 257.16 72.2599C257.16 55.4999 243.58 41.9199 226.82 41.9199C210.06 41.9199 196.48 55.4999 196.48 72.2599C196.48 89.0199 210.06 102.6 226.82 102.6C237.77 102.6 247.37 96.7899 252.7 88.0899H238.43L238.44 88.0799Z" fill="#333333"/>
<path d="M118.66 37.6199L103.12 37.8899C121.19 55.8499 121.55 85.0499 103.79 103.44C86.92 120.91 59.73 122.38 41.12 107.54L25.29 107.82L25.59 125.02C53.52 148.13 94.98 146.17 120.59 119.66C147.47 91.8299 146.69 47.4799 118.86 20.5999C118.69 20.4399 118.52 20.2799 118.36 20.1299L118.67 37.6199H118.66Z" fill="#F0B51D"/>
<path d="M21.7302 104.38L37.2702 104.11C19.2002 86.1499 18.8402 56.9499 36.6002 38.5599C53.4702 21.0899 80.6602 19.6199 99.2702 34.4599L115.1 34.1799L114.8 16.9799C86.8702 -6.13011 45.4102 -4.17013 19.8002 22.3399C-7.07977 50.1699 -6.29977 94.5199 21.5302 121.4C21.7002 121.56 21.8702 121.72 22.0302 121.88L21.7202 104.39L21.7302 104.38Z" fill="#1C3664"/>
</svg>
